<svg width="537" height="461" viewBox="0 0 537 461" fill="none" xmlns="http://www.w3.org/2000/svg">
<rect x="18.5" y="18.5" width="423" height="347" rx="32.5" stroke="#282e5c" stroke-width="37"/>
<path fill-rule="evenodd" clip-rule="evenodd" d="M486 114H128C120.268 114 114 120.268 114 128V410C114 417.732 120.268 424 128 424H486C493.732 424 500 417.732 500 410V128C500 120.268 493.732 114 486 114ZM128 77C99.8335 77 77 99.8335 77 128V410C77 438.167 99.8335 461 128 461H486C514.167 461 537 438.167 537 410V128C537 99.8335 514.167 77 486 77H128ZM423 114H128C120.268 114 114 120.268 114 128V347H409C416.732 347 423 340.732 423 333V114ZM128 77C99.8335 77 77 99.8335 77 128V356C77 371.464 89.536 384 105 384H409C437.167 384 460 361.167 460 333V108C460 90.8792 446.121 77 429 77H128Z" fill="#282e5c"/>
<rect x="132.576" y="115.917" width="37" height="188" transform="rotate(44.38 132.576 115.917)" fill="#282e5c"/>
<rect x="325.49" y="154" width="37" height="139.64" transform="rotate(44.38 325.49 154)" fill="#282e5c"/>
<path d="M115 150.642L140.674 124L385.497 359.928L377.17 368.568C367.59 378.51 351.763 378.803 341.821 369.222L115 150.642Z" fill="#282e5c"/>
<path d="M299.806 181.836L325.011 154.75L448.457 269.623C457.756 278.277 458.28 292.83 449.626 302.129L440.089 312.378L299.806 181.836Z" fill="#282e5c"/>
<ellipse cx="326.5" cy="95.5" rx="20.5" ry="19.5" fill="#282e5c"/>
</svg>
