<svg width="568" height="537" viewBox="0 0 568 537" fill="none" xmlns="http://www.w3.org/2000/svg">
<path fill-rule="evenodd" clip-rule="evenodd" d="M100 123.579H50.8164C26.5159 123.579 6.81641 143.279 6.81641 167.579V364.863C6.81641 389.163 26.5158 408.863 50.8164 408.863H361.162C385.462 408.863 405.162 389.163 405.162 364.863V179H375.162V364.863C375.162 372.595 368.894 378.863 361.162 378.863H50.8164C43.0844 378.863 36.8164 372.595 36.8164 364.863V167.579C36.8164 159.847 43.0845 153.579 50.8164 153.579H100V123.579Z" fill="#282e5c"/>
<path fill-rule="evenodd" clip-rule="evenodd" d="M135.653 44.0001C135.653 19.6995 155.353 0 179.653 0H489.999C514.299 0 533.999 19.6995 533.999 44V241.284C533.999 265.584 514.299 285.284 489.999 285.284H179.653C155.353 285.284 135.653 265.584 135.653 241.284V44.0001ZM313.222 49.9062C317.781 48.297 322.581 47.4749 327.416 47.4749H337.456H338.176L338.892 47.5544L340.762 47.7621C353.814 49.2123 366.07 54.7639 375.768 63.6188L377.649 65.3366C379.128 66.6863 380.494 68.1539 381.734 69.725C389.438 79.4836 392.876 91.9394 391.268 104.268L391.102 105.54L391.064 105.83L391.013 106.118L390.22 110.611C389.054 117.221 386.179 123.412 381.882 128.569C379.934 130.907 377.793 133.078 375.482 135.059L368.95 140.657L367.663 141.772C362.94 145.866 358.699 150.485 355.023 155.538L350.176 164.263C349.607 165.287 349.12 166.355 348.72 167.456C348.129 169.08 347.827 170.795 347.827 172.523V178.795H321.827V172.523C321.827 167.764 322.659 163.043 324.285 158.571C325.155 156.179 326.212 153.861 327.448 151.636L332.666 142.244L333.023 141.601L333.451 141.002C338.414 134.053 344.182 127.717 350.635 122.124L351.949 120.986L351.976 120.963L352.003 120.939L358.561 115.318C359.77 114.282 360.889 113.147 361.908 111.924C363.304 110.249 364.237 108.239 364.616 106.092L365.358 101.888L365.486 100.905C366.188 95.5268 364.688 90.093 361.327 85.8358C360.96 85.3709 360.556 84.9366 360.118 84.5373L358.237 82.8194C352.6 77.6727 345.477 74.446 337.89 73.6031L336.736 73.4749H327.416C325.529 73.4749 323.655 73.7958 321.875 74.424L319.833 75.1446C317.767 75.8738 315.78 76.8091 313.901 77.9363C309.496 80.5793 305.733 84.1675 302.884 88.4419L299.63 93.322C295.648 99.2959 287.576 100.91 281.602 96.9276C275.628 92.945 274.014 84.8737 277.997 78.8998L281.25 74.0197C286.235 66.5422 292.818 60.2651 300.524 55.6414C303.899 53.6167 307.469 51.9367 311.18 50.6269L313.222 49.9062ZM325 197C321.686 197 319 199.686 319 203V216C319 219.314 321.686 222 325 222H345C348.314 222 351 219.314 351 216V203C351 199.686 348.314 197 345 197H325Z" fill="#282e5c"/>
<path d="M489.943 346.9C490.633 359.595 476.206 367.337 466.008 359.745L368.828 287.402C360.016 280.843 361.013 267.348 370.692 262.154L461.301 213.524C470.981 208.33 482.777 214.959 483.373 225.928L489.943 346.9Z" fill="#282e5c"/>
<path d="M52.4906 471.331C52.7006 484.013 67.577 490.726 77.2252 482.493L167.499 405.462C178.156 396.369 171.638 378.928 157.629 379.052L66.0932 379.866C57.7643 379.94 51.0907 386.785 51.2286 395.113L52.4906 471.331Z" fill="#282e5c"/>
</svg>
