<svg width="700" height="475" viewBox="0 0 700 475" fill="none" xmlns="http://www.w3.org/2000/svg">
<path d="M32.4962 160.602C32.4962 160.602 67.4885 119.306 69.5469 116.208C71.6052 113.111 79.8387 85.2361 79.8387 85.2361L94.2473 54.2639L107.178 36.5136C111.535 30.5331 117.215 25.6407 123.776 22.2187L135.242 16.2375C137.879 14.8618 141.062 15.0629 143.505 16.7597L179.67 41.875L211.32 70.6479C212.173 71.4229 213.117 72.0897 214.133 72.6331L233.09 82.7752C239.911 86.4242 247.526 88.3333 255.262 88.3333H284.405C291.766 88.3333 298.782 85.2132 303.712 79.7471L309.268 73.5866C313.431 68.9715 317.958 64.6984 322.805 60.8086L343.653 44.0777C348.878 39.8848 354.758 36.5812 361.056 34.2995L380.669 27.195C385.128 25.5799 390.074 27.7014 391.978 32.0448L421.528 99.4833M32.4962 160.602L22.2043 179.185L19.8849 186.165C16.6532 195.891 15.1451 206.106 15.4288 216.351L15.7556 228.154C15.9303 234.461 18.6883 240.419 23.3839 244.634L33.7312 253.921C34.9646 255.028 36.2752 256.046 37.6529 256.967L60.2842 272.102L101.452 291.718L150.853 307.204L243.479 335.079L374.186 404.25L441.083 433.157L508.634 455.422C511.618 456.406 514.709 457.025 517.842 457.267L553.264 460L586.281 458.344C591.693 458.073 597.048 457.115 602.219 455.494L627.366 447.611L641.755 440.949C649.973 437.144 657.722 432.398 664.846 426.805L669.862 422.867C675.026 418.813 678.818 413.269 680.724 406.987L685 392.894M32.4962 160.602L52.0507 184.347L71.9073 198.575C77.8588 202.839 84.3084 206.361 91.1131 209.063L130.269 224.611L197.449 246.176C204.092 248.309 210.424 251.312 216.278 255.107L358.748 347.468L430.281 387.434C436.788 391.069 443.552 394.22 450.521 396.863L516.446 421.864C521.765 423.881 527.284 425.325 532.909 426.171L558.142 429.968C563.117 430.717 568.14 431.093 573.171 431.093H600.318C605.922 431.093 611.449 429.784 616.458 427.272L685 392.894M477.104 217.384L523.418 274.167L552.235 299.977L573.003 313.866C577.613 316.948 582.907 318.857 588.424 319.425L616.558 322.319C618.95 322.565 621.301 323.118 623.551 323.965L649.922 333.885C652.021 334.675 653.964 335.83 655.66 337.297L673.751 352.941C679.63 358.025 683.223 365.258 683.722 373.015L685 392.894M477.104 217.384L459.608 193.639L448.287 168.861L443.141 160.602M477.104 217.384L448.802 237L421.528 254.551M421.528 99.4833L429.762 128.597L443.141 160.602M421.528 99.4833L371.098 134.792M443.141 160.602L394.77 196.736" stroke="#282e5c" stroke-width="29"/>
</svg>
