<svg width="503" height="462" viewBox="0 0 503 462" fill="none" xmlns="http://www.w3.org/2000/svg">
<path d="M131.118 164H105.833C103.625 164 101.426 164.271 99.2841 164.806L86.2921 168.054C80.4528 169.514 74.8871 171.906 69.8091 175.137L61.051 180.71C58.8935 182.083 56.8727 183.66 55.0162 185.419L45.3688 194.558C42.3422 197.426 39.5634 200.544 37.0619 203.879L28.2165 215.673C22.4075 223.418 18.6297 232.495 17.2278 242.074L14.2635 262.331C14.0881 263.529 14 264.739 14 265.951V292.178C14 298.4 15.6588 304.51 18.8056 309.878L22.2444 315.744C26.552 323.092 34.4315 327.607 42.9492 327.607H120.389" stroke="#282e5c" stroke-width="28" stroke-linecap="round"/>
<path d="M261.917 284.301H236.632C234.425 284.301 232.226 284.571 230.084 285.107L217.092 288.355C211.253 289.815 205.687 292.206 200.609 295.438L191.851 301.011C189.693 302.384 187.672 303.961 185.816 305.719L176.169 314.859C173.142 317.726 170.363 320.844 167.862 324.179L159.016 335.973C153.207 343.719 149.43 352.795 148.028 362.375L145.063 382.631C144.888 383.83 144.8 385.04 144.8 386.251V412.478C144.8 418.701 146.459 424.81 149.605 430.178L153.044 436.045C157.352 443.393 165.231 447.907 173.749 447.907H251.189" stroke="#282e5c" stroke-width="28" stroke-linecap="round"/>
<path d="M371.882 164.501H397.167C399.375 164.501 401.574 164.772 403.716 165.307L416.708 168.555C422.547 170.015 428.113 172.407 433.191 175.638L441.949 181.211C444.106 182.584 446.127 184.161 447.984 185.92L457.631 195.059C460.658 197.927 463.437 201.045 465.938 204.38L474.783 216.174C480.593 223.919 484.37 232.996 485.772 242.575L488.737 262.832C488.912 264.03 489 265.24 489 266.452V292.679C489 298.901 487.341 305.011 484.194 310.379L480.756 316.245C476.448 323.593 468.568 328.108 460.051 328.108H382.611" stroke="#282e5c" stroke-width="28" stroke-linecap="round"/>
<path d="M241.354 284.301H266.639C268.847 284.301 271.046 284.571 273.188 285.107L286.18 288.355C292.019 289.815 297.585 292.206 302.663 295.438L311.421 301.011C313.578 302.384 315.599 303.961 317.455 305.719L327.103 314.859C330.129 317.726 332.908 320.844 335.41 324.179L344.255 335.973C350.064 343.719 353.842 352.795 355.244 362.375L358.208 382.631C358.384 383.83 358.472 385.04 358.472 386.251V412.478C358.472 418.701 356.813 424.81 353.666 430.178L350.227 436.045C345.92 443.393 338.04 447.907 329.522 447.907H252.082" stroke="#282e5c" stroke-width="28" stroke-linecap="round"/>
<circle cx="143.905" cy="72.4162" r="58.4162" stroke="#282e5c" stroke-width="28"/>
<circle cx="367.412" cy="72.4162" r="58.4162" stroke="#282e5c" stroke-width="28"/>
<circle cx="252.083" cy="207.414" r="66.4624" stroke="#282e5c" stroke-width="28"/>
</svg>
